<?xml version="1.0" standalone="no"?>
<!DOCTYPE svg PUBLIC "-//W3C//DTD SVG 20010904//EN"
 "http://www.w3.org/TR/2001/REC-SVG-20010904/DTD/svg10.dtd">
<svg version="1.0" xmlns="http://www.w3.org/2000/svg"
 width="440.000000pt" height="414.000000pt" viewBox="0 0 440.000000 414.000000"
 preserveAspectRatio="xMidYMid meet">

<g transform="translate(0.000000,414.000000) scale(0.100000,-0.100000)"
fill="#000000" stroke="none">
<path d="M1400 3879 c0 -5 -8 -8 -17 -7 -54 4 -76 -4 -118 -47 -25 -24 -45
-54 -45 -65 0 -13 -7 -20 -19 -20 -10 0 -42 -17 -70 -37 l-51 -38 4 -200 c2
-110 7 -215 11 -232 5 -22 4 -33 -4 -33 -6 0 -12 8 -12 18 -1 9 -7 -19 -12
-63 -22 -160 -6 -715 25 -862 12 -57 14 -54 -58 -111 -23 -17 -47 -32 -53 -32
-6 0 -11 -4 -11 -9 0 -5 -17 -20 -37 -32 -34 -21 -62 -43 -97 -74 -6 -6 -24
-19 -41 -29 -16 -11 -34 -25 -38 -33 -4 -7 -12 -13 -18 -13 -19 0 -119 -91
-119 -109 0 -7 22 -11 58 -11 79 0 97 -15 36 -28 -27 -6 -68 -13 -91 -16 -50
-7 -126 -46 -159 -81 -13 -14 -27 -25 -32 -25 -27 0 -82 -92 -102 -173 -22
-85 5 -273 58 -400 7 -16 12 -35 12 -43 0 -8 5 -14 10 -14 6 0 10 -5 10 -12 0
-13 60 -140 70 -148 3 -3 17 -23 30 -45 13 -22 28 -44 32 -50 5 -5 29 -39 54
-75 72 -100 190 -223 205 -214 5 3 6 -2 3 -10 -6 -15 5 -21 34 -17 8 1 12 -6
10 -16 -2 -12 2 -17 15 -15 9 2 17 -2 17 -8 0 -5 6 -10 13 -10 8 0 22 -9 32
-20 18 -20 18 -21 -1 -14 -10 3 -3 -5 16 -17 19 -13 37 -26 40 -29 14 -15 132
-79 180 -98 37 -14 71 -24 155 -42 53 -12 152 -5 172 12 6 5 27 10 45 10 40 0
66 16 123 73 55 56 80 93 89 129 4 15 14 35 21 43 13 13 15 12 15 -7 0 -11 -7
-32 -16 -46 -23 -34 -10 -42 31 -20 37 20 72 48 144 116 26 25 59 54 72 65 79
65 144 123 192 168 30 29 75 70 100 92 56 48 119 167 128 240 6 49 6 49 14 17
6 -25 12 -31 25 -27 28 9 35 -14 13 -38 -31 -35 -39 -54 -12 -31 13 12 37 32
53 45 42 35 75 70 94 101 9 16 20 28 24 28 4 0 8 6 8 13 0 20 33 47 58 47 20
0 240 -105 252 -121 5 -5 107 -55 175 -84 17 -8 55 -25 85 -39 95 -45 140 -56
221 -56 117 0 137 12 318 190 l87 86 17 114 c10 63 17 126 17 140 0 14 7 43
15 65 19 53 19 104 0 111 -18 7 -20 77 -5 139 6 22 13 128 16 235 5 153 9 197
20 203 19 11 20 147 1 147 -7 0 -14 -12 -15 -27 -4 -47 -12 -38 -12 13 0 27
-5 65 -10 84 -6 19 -12 85 -14 145 -3 61 -10 126 -17 145 -15 40 -55 84 -87
94 -12 4 -22 12 -22 17 0 5 -7 9 -15 9 -36 0 -96 36 -102 60 -9 37 -23 52 -38
40 -9 -8 -14 -7 -18 2 -4 10 -8 9 -18 -3 -23 -27 -66 -33 -78 -10 -9 17 -5 19
41 25 29 4 56 10 61 13 21 13 -80 62 -145 70 -33 5 -36 3 -31 -16 4 -17 1 -21
-21 -21 -19 0 -26 5 -26 19 0 10 -6 24 -14 30 -8 6 -16 26 -19 44 -9 55 -28
122 -38 132 -5 5 -9 17 -9 28 0 10 -19 54 -42 99 -46 87 -131 181 -189 209
-19 9 -46 22 -61 29 -39 18 -132 8 -168 -18 -34 -26 -68 -28 -96 -7 -10 8 -29
15 -41 15 -18 0 -23 6 -23 25 0 16 -7 28 -17 31 -10 3 -26 10 -35 15 -10 5
-26 9 -37 9 -22 0 -81 -31 -81 -42 0 -5 -5 -8 -11 -8 -10 0 -76 -49 -110 -82
-10 -9 -31 -24 -48 -32 -28 -15 -33 -14 -79 6 -37 16 -53 31 -65 57 -10 22
-16 29 -16 18 -1 -23 -25 -17 -29 6 -2 11 3 17 13 17 15 0 15 2 4 16 -8 10
-15 12 -17 5 -5 -14 -32 -15 -32 -1 0 6 6 10 13 10 6 0 -1 7 -17 15 -24 13
-31 13 -38 3 -6 -10 -8 -9 -8 4 0 12 -7 16 -27 14 -16 -2 -34 1 -40 6 -9 7
-13 7 -13 -2 0 -8 -12 -10 -37 -6 -21 4 -44 2 -52 -3 -18 -12 -41 -3 -41 15 0
8 -4 14 -9 14 -5 0 -39 14 -74 30 -36 17 -75 30 -86 30 -13 0 -21 6 -21 16 0
24 -67 84 -94 84 -12 0 -27 5 -34 12 -8 8 -15 8 -27 -2 -8 -7 -15 -8 -15 -3 0
5 -20 10 -45 11 -25 0 -45 -4 -45 -9z m11 -37 c-28 -4 -40 6 -21 18 9 6 20 4
29 -3 12 -10 11 -13 -8 -15z m129 13 c0 -10 -9 -15 -27 -14 -17 1 -21 3 -10 6
9 2 17 9 17 14 0 5 5 9 10 9 6 0 10 -7 10 -15z m50 -66 c0 -5 -4 -9 -10 -9 -5
0 -10 7 -10 16 0 8 5 12 10 9 6 -3 10 -10 10 -16z m-262 -15 c-3 -2 -20 -1
-39 3 l-34 7 35 6 c31 5 50 -3 38 -16z m299 20 c-3 -3 -12 -4 -19 -1 -8 3 -5
6 6 6 11 1 17 -2 13 -5z m-262 -63 c3 -5 1 -12 -5 -16 -5 -3 -10 -1 -10 4 0 6
-4 11 -10 11 -5 0 -10 -7 -10 -15 0 -9 -9 -15 -22 -15 l-23 1 24 19 c25 22 46
26 56 11z m219 -6 c4 -11 -1 -15 -19 -15 -26 0 -34 15 -12 23 20 9 25 8 31 -8z
m43 9 c-3 -3 -12 -4 -19 -1 -8 3 -5 6 6 6 11 1 17 -2 13 -5z m142 -20 c-6 -8
-18 -14 -25 -14 -8 0 -14 6 -14 14 0 8 10 14 25 14 20 0 23 -3 14 -14z m-309
-18 c0 -22 -25 -26 -38 -5 -11 17 -9 19 13 19 15 0 25 -6 25 -14z m210 -76
c-9 -6 -9 -13 -1 -29 9 -17 9 -21 -2 -21 -8 0 -17 12 -20 27 -6 34 -1 44 19
36 11 -4 12 -8 4 -13z m470 -60 c0 -12 7 -20 18 -20 14 -1 14 -3 -5 -19 -13
-11 -23 -24 -23 -30 0 -6 -10 -11 -23 -11 -12 0 -29 -9 -36 -19 -13 -17 -16
-18 -36 -5 -21 13 -23 13 -28 -6 -6 -24 -20 -26 -41 -5 -8 8 -20 15 -27 15 -9
0 -8 -4 1 -15 11 -13 8 -15 -14 -15 -18 0 -26 5 -26 18 0 14 -2 14 -9 3 -14
-22 -54 -22 -48 0 4 14 0 16 -23 9 -16 -5 -31 -6 -34 -2 -11 11 -6 22 12 23 9
0 12 3 5 5 -7 3 -21 0 -33 -6 -18 -10 -22 -9 -27 9 -3 12 -12 21 -19 21 -8 0
-14 6 -14 14 0 9 17 16 49 20 45 6 51 4 79 -24 17 -16 38 -30 46 -30 9 0 16
-5 16 -10 0 -6 8 -5 20 2 17 11 22 10 29 -1 7 -11 9 -11 13 0 3 9 19 12 47 11
36 -2 47 2 68 24 20 22 27 25 35 13 8 -11 9 -10 4 4 -6 20 2 47 15 47 5 0 9
-9 9 -20z m30 0 c0 -5 -2 -10 -4 -10 -3 0 -8 5 -11 10 -3 6 -1 10 4 10 6 0 11
-4 11 -10z m614 -35 c4 -10 -1 -15 -14 -15 -13 0 -18 5 -14 15 4 8 10 15 14
15 4 0 10 -7 14 -15z m-64 -51 c0 -8 -7 -14 -15 -14 -8 0 -15 9 -15 20 0 13 5
18 15 14 8 -4 15 -12 15 -20z m100 -54 c-9 -6 -17 -5 -22 3 -9 15 14 29 27 16
6 -6 5 -13 -5 -19z m-82 11 c8 -5 12 -17 10 -27 -3 -16 -12 -19 -53 -19 -41 0
-50 3 -53 19 -5 23 14 36 53 36 17 0 36 -4 43 -9z m-51 -373 c-3 -7 -5 -2 -5
12 0 14 2 19 5 13 2 -7 2 -19 0 -25z m-911 -22 c16 -17 19 -66 4 -66 -17 0
-50 39 -50 60 0 23 25 27 46 6z m1537 1 c3 -7 -4 -19 -14 -25 -10 -7 -19 -8
-19 -3 0 5 6 12 13 15 6 4 2 4 -10 2 -15 -3 -23 1 -23 10 0 18 46 19 53 1z
m180 -14 c-7 -2 -13 -9 -13 -15 0 -6 8 -7 17 -4 15 6 15 4 -2 -14 -20 -23 -36
-25 -52 -9 -9 9 -6 16 10 30 12 10 29 18 37 18 10 0 11 -2 3 -6z m-283 -12 c0
-12 -26 -32 -33 -25 -9 10 4 34 19 34 8 0 14 -4 14 -9z m-513 -38 c-3 -10 -5
-4 -5 12 0 17 2 24 5 18 2 -7 2 -21 0 -30z m430 -55 c-3 -7 -5 -2 -5 12 0 14
2 19 5 13 2 -7 2 -19 0 -25z m-1078 8 c9 -11 9 -15 -1 -19 -10 -4 -10 -7 -1
-14 10 -7 7 -13 -8 -27 -25 -21 -25 -22 -33 32 -5 37 -4 42 13 42 10 0 24 -6
30 -14z m1041 -7 c0 -5 -4 -9 -10 -9 -5 0 -10 7 -10 16 0 8 5 12 10 9 6 -3 10
-10 10 -16z m170 6 c0 -9 -12 -12 -42 -10 -66 4 -68 4 -68 14 0 5 25 10 55 10
39 0 55 -4 55 -14z m-543 -37 c-3 -7 -5 -2 -5 12 0 14 2 19 5 13 2 -7 2 -19 0
-25z m-617 -18 c0 -36 10 -61 21 -54 5 3 9 18 9 35 0 16 5 29 10 29 6 0 10
-18 10 -40 0 -33 -3 -40 -19 -40 -11 0 -26 7 -34 15 -18 17 -31 70 -22 85 11
17 25 0 25 -30z m1170 13 c0 -14 -10 -19 -43 -21 -23 -1 -43 -7 -45 -12 -5
-14 -21 -12 -38 5 -16 16 -15 17 76 34 25 5 46 9 48 10 1 1 2 -7 2 -16z
m-1052 -77 c-2 -23 -9 -32 -25 -34 -23 -3 -31 12 -13 23 6 3 10 20 10 37 0 26
2 29 16 18 9 -8 14 -25 12 -44z m35 -5 c-2 -13 3 -21 12 -21 8 0 15 7 15 15 0
19 21 19 46 0 17 -13 17 -14 2 -15 -20 0 -25 -20 -5 -21 10 0 10 -2 0 -6 -7
-2 -13 -11 -13 -19 0 -8 -7 -14 -15 -14 -8 0 -15 9 -15 20 0 11 -4 20 -10 20
-5 0 -10 -4 -10 -10 0 -5 -7 -7 -15 -4 -19 8 -22 88 -2 81 6 -2 11 -14 10 -26z
m474 7 c-3 -8 -6 -5 -6 6 -1 11 2 17 5 13 3 -3 4 -12 1 -19z m563 9 c0 -7 -5
-18 -12 -25 -24 -24 -73 -7 -62 21 8 21 74 24 74 4z m93 -20 c8 -21 -6 -34
-33 -32 -18 1 -25 8 -26 23 -1 18 4 22 26 22 15 0 30 -6 33 -13z m-1009 -33
c11 -29 7 -74 -8 -74 -15 0 -31 63 -21 80 9 15 22 12 29 -6z m1148 -19 c-2
-19 -5 -35 -7 -35 -2 0 -5 16 -7 35 -2 21 0 35 7 35 7 0 9 -14 7 -35z m313 4
c4 -17 4 -33 1 -36 -3 -4 -6 3 -6 15 0 12 -4 22 -10 22 -5 0 -10 7 -10 15 0
27 18 16 25 -16z m-1415 -40 c0 -23 5 -39 12 -39 6 0 9 -3 5 -6 -3 -3 -15 -3
-26 1 -17 5 -21 15 -21 50 0 35 3 43 15 39 10 -4 15 -20 15 -45z m1077 45 c-3
-3 -12 -4 -19 -1 -8 3 -5 6 6 6 11 1 17 -2 13 -5z m-750 -36 c-3 -7 -5 -2 -5
12 0 14 2 19 5 13 2 -7 2 -19 0 -25z m-257 -31 c0 -19 1 -20 13 -3 8 11 19 15
30 10 23 -8 25 -84 2 -84 -8 0 -15 5 -15 11 0 6 -6 9 -14 6 -10 -4 -18 4 -25
21 -6 17 -10 21 -10 10 -1 -10 -5 -18 -11 -18 -11 0 -14 73 -3 83 10 11 33
-14 33 -36z m1350 3 c0 -5 -9 -14 -20 -20 -17 -9 -20 -8 -20 10 0 13 7 20 20
20 11 0 20 -4 20 -10z m-140 -65 c0 -10 -10 -15 -30 -15 -20 0 -30 5 -30 15 0
10 10 15 30 15 20 0 30 -5 30 -15z m-1447 -12 c-7 -2 -19 -2 -25 0 -7 3 -2 5
12 5 14 0 19 -2 13 -5z m1394 -139 c-3 -3 -12 -4 -19 -1 -8 3 -5 6 6 6 11 1
17 -2 13 -5z m-662 -25 c11 -16 1 -19 -13 -3 -7 8 -8 14 -3 14 5 0 13 -5 16
-11z m56 -28 c-11 -7 -11 -13 -1 -32 13 -23 12 -24 -7 -6 -11 9 -32 17 -46 17
-30 0 -37 16 -9 23 32 9 78 7 63 -2z m-1581 -31 c0 -16 -7 -20 -34 -20 -18 0
-55 -2 -82 -6 l-49 -5 35 16 c33 15 90 32 118 34 6 1 12 -8 12 -19z m1687 -10
c21 -11 30 -20 20 -20 -9 0 -17 -4 -17 -10 0 -5 -7 -10 -16 -10 -8 0 -12 5 -9
11 4 5 -1 19 -11 30 -22 24 -13 24 33 -1z m-1321 -25 c-26 -19 -47 -19 -40 0
4 8 18 15 33 15 25 -1 25 -1 7 -15z m715 -4 c12 -11 18 -25 14 -32 -5 -7 -3
-10 6 -7 8 3 20 -7 27 -21 9 -17 10 -27 3 -29 -6 -2 -11 -8 -11 -13 0 -5 9 -4
20 3 10 7 23 9 27 5 9 -10 -16 -27 -37 -26 -37 3 -51 -3 -60 -23 l-9 -23 -7
22 c-3 12 -13 24 -23 26 -13 4 -11 6 7 12 12 4 22 11 22 15 0 4 7 11 16 14 12
4 15 2 10 -9 -3 -9 0 -15 9 -15 19 0 9 27 -22 60 -13 14 -23 28 -23 33 0 4 -4
5 -10 2 -6 -3 -7 1 -4 9 8 21 20 20 45 -3z m-781 -21 c0 -13 5 -18 15 -14 19
8 19 -6 1 -32 -14 -18 -15 -18 -21 -1 -4 9 -15 17 -25 17 -27 0 -33 16 -14 34
21 22 44 20 44 -4z m1451 -21 c-9 -23 -10 -22 -10 11 -1 23 2 31 9 24 7 -7 7
-19 1 -35z m-478 -18 c9 -15 14 -30 11 -33 -2 -3 2 -11 11 -18 8 -7 15 -21 15
-32 0 -17 -8 -12 -40 23 -22 24 -40 47 -40 51 0 4 -7 14 -16 22 -14 15 -13 16
13 16 21 0 33 -8 46 -29z m559 12 c27 -24 23 -43 -9 -42 -19 1 -22 3 -10 6 11
3 16 10 13 20 -3 8 -6 17 -6 19 0 2 -7 4 -16 4 -10 0 -14 -6 -10 -15 3 -9 0
-15 -9 -15 -8 0 -15 2 -15 4 0 2 -3 11 -6 20 -9 22 43 22 68 -1z m-772 1 c0
-11 -42 -44 -57 -44 -7 0 -13 2 -13 4 0 2 -3 12 -7 22 -5 13 -3 16 10 11 9 -3
17 -2 17 3 0 6 11 10 25 10 14 0 25 -3 25 -6z m-1335 -14 c-3 -5 -12 -10 -18
-10 -7 0 -6 4 3 10 19 12 23 12 15 0z m745 -24 c0 -6 -49 -56 -55 -56 -4 0 -5
10 -3 22 2 14 13 25 28 29 14 4 26 7 28 8 1 1 2 -1 2 -3z m1782 -18 c29 -20
32 -20 44 -4 19 27 48 16 52 -19 2 -17 13 -38 23 -48 23 -21 18 -49 -14 -84
-23 -26 -65 -30 -116 -12 l-31 11 0 89 c0 49 3 89 6 89 3 0 20 -10 36 -22z
m-1750 -30 c5 -14 -39 -41 -53 -32 -14 8 -10 24 6 24 8 0 15 5 15 10 0 14 28
12 32 -2z m-882 -138 c17 -6 2 -8 -50 -8 -50 0 -68 2 -55 8 25 11 72 11 105 0z
m88 -17 c-10 -2 -28 -2 -40 0 -13 2 -5 4 17 4 22 1 32 -1 23 -4z m102 -32 c3
-5 16 -12 30 -16 14 -4 27 -10 30 -14 13 -16 81 -43 95 -37 9 3 14 2 11 -3 -3
-5 2 -15 11 -22 15 -12 16 -12 10 4 -8 22 -1 22 24 -2 12 -11 18 -24 15 -29
-3 -6 1 -13 10 -16 8 -3 12 -2 9 4 -3 6 0 10 8 10 7 0 20 -15 28 -32 9 -21 21
-32 32 -31 11 0 16 -4 13 -12 -3 -8 2 -11 12 -9 21 5 49 -12 38 -23 -5 -4 -11
-2 -13 5 -3 6 -9 12 -14 12 -6 0 -5 -9 1 -21 16 -29 7 -33 -21 -8 -13 11 -33
28 -44 38 -11 9 -43 32 -70 51 -28 18 -52 36 -55 40 -11 13 -107 70 -118 70
-7 0 -12 4 -12 9 0 5 -15 13 -32 16 -18 4 -37 11 -43 15 -5 4 -19 10 -30 14
-11 3 0 3 25 0 24 -3 47 -9 50 -13z m898 -18 c-10 -2 -18 -11 -18 -19 0 -8 -4
-14 -10 -14 -11 0 -14 23 -3 33 3 4 16 6 27 6 17 -1 18 -2 4 -6z m28 -64 c-17
-14 -22 -15 -24 -4 -5 22 20 44 34 31 8 -8 5 -15 -10 -27z m514 -18 c0 -6 -4
-13 -10 -16 -5 -3 -10 1 -10 9 0 9 5 16 10 16 6 0 10 -4 10 -9z m70 -16 c-7
-8 -16 -15 -21 -15 -5 0 -6 7 -3 15 4 8 13 15 21 15 13 0 13 -3 3 -15z m-55
-24 c3 -5 1 -12 -5 -16 -5 -3 -10 1 -10 9 0 18 6 21 15 7z m-1148 -33 c-3 -8
-6 -5 -6 6 -1 11 2 17 5 13 3 -3 4 -12 1 -19z m1168 -49 c0 -24 -5 -35 -17
-37 -14 -3 -18 4 -18 31 0 18 3 37 7 41 15 14 28 -2 28 -35z m-1495 1 c0 -5 6
-10 14 -10 8 0 21 -6 28 -12 7 -7 31 -26 53 -43 22 -16 48 -39 58 -52 10 -12
25 -24 35 -27 23 -8 44 -60 29 -75 -17 -17 -40 -13 -67 12 -14 12 -54 45 -90
72 -36 27 -74 57 -84 67 -11 10 -23 18 -28 18 -12 0 -10 34 4 48 15 15 48 16
48 2z m-603 -86 c-3 -3 -12 -4 -19 -1 -8 3 -5 6 6 6 11 1 17 -2 13 -5z m-54
-11 c-13 -2 -33 -2 -45 0 -13 2 -3 4 22 4 25 0 35 -2 23 -4z m1797 -1 c0 -14
-23 -32 -39 -31 -11 0 -12 2 -3 6 6 2 12 11 12 19 0 8 7 14 15 14 8 0 15 -4
15 -8z m-1672 -54 c7 -7 12 -16 12 -20 0 -14 -28 -9 -44 8 -15 14 -16 13 -16
-10 0 -31 -4 -32 -30 -6 -26 26 -25 28 8 33 50 8 58 7 70 -5z m1697 2 c3 -6
-1 -7 -9 -4 -11 4 -16 0 -16 -10 0 -9 -5 -16 -10 -16 -7 0 -7 6 0 20 12 22 25
26 35 10z m392 -62 c-2 -15 1 -29 7 -31 7 -2 6 -10 -4 -22 -11 -13 -12 -19 -3
-22 10 -4 10 -9 0 -24 -10 -16 -9 -21 2 -28 8 -5 9 -11 3 -15 -6 -3 -8 -15 -5
-26 3 -12 0 -20 -7 -20 -9 0 -11 10 -6 31 5 25 3 30 -9 25 -12 -4 -15 4 -15
39 0 25 5 45 10 45 7 0 7 7 2 18 -14 28 -14 85 0 93 16 10 31 -26 25 -63z
m-1837 53 c0 -12 -46 -41 -54 -34 -10 11 15 43 34 43 11 0 20 -4 20 -9z m-150
-11 c8 -5 12 -11 9 -14 -7 -8 -49 5 -49 15 0 12 21 11 40 -1z m-206 -6 c17 -7
22 -34 7 -34 -10 0 -41 28 -41 36 0 6 16 5 34 -2z m256 -19 c0 -8 -2 -15 -4
-15 -2 0 -6 7 -10 15 -3 8 -1 15 4 15 6 0 10 -7 10 -15z m244 3 c7 -7 29 -26
49 -42 20 -16 37 -33 37 -38 0 -4 -10 1 -22 11 -13 11 -34 29 -47 40 -13 12
-28 21 -33 21 -4 0 -8 5 -8 10 0 14 9 13 24 -2z m-529 -19 c11 -16 1 -19 -13
-3 -7 8 -8 14 -3 14 5 0 13 -5 16 -11z m2275 -11 c-11 -12 -23 -18 -27 -14 -5
4 1 14 11 22 30 21 39 17 16 -8z m-2292 -33 c-3 -3 -9 2 -12 12 -6 14 -5 15 5
6 7 -7 10 -15 7 -18z m342 -16 c0 -4 -8 -9 -19 -12 -21 -5 -34 -60 -17 -77 5
-5 39 -10 75 -10 58 0 147 -22 161 -40 3 -4 12 -9 20 -13 61 -27 180 -145 235
-233 25 -39 45 -76 45 -82 0 -7 4 -12 8 -12 4 0 16 -25 25 -55 19 -63 23 -176
6 -207 -15 -28 3 -65 32 -70 35 -5 33 -24 -2 -34 -18 -5 -34 -15 -37 -22 -5
-17 36 -15 54 3 8 8 22 11 31 8 14 -5 13 -9 -7 -25 -12 -10 -31 -18 -41 -18
-11 0 -19 -7 -19 -16 0 -11 -5 -14 -16 -10 -9 3 -33 6 -55 6 -30 0 -37 3 -33
15 5 12 -2 15 -31 15 -20 0 -43 7 -51 14 -13 13 -8 15 38 18 47 3 50 4 25 12
-16 5 -50 31 -75 58 -26 28 -62 64 -81 82 -19 17 -41 39 -50 50 -9 10 -23 26
-32 35 -8 9 -37 43 -65 76 -27 33 -52 62 -56 63 -5 2 -8 8 -8 13 0 8 -27 43
-61 79 -8 9 -18 24 -22 33 -3 9 -11 17 -17 17 -5 0 -10 6 -10 14 0 8 -12 28
-26 45 -24 29 -31 46 -33 79 -2 23 -19 12 -24 -15 -4 -16 -10 -46 -14 -68 -8
-37 -9 -32 -21 60 -14 109 -7 161 21 159 11 -1 17 6 17 21 0 14 14 35 36 54
35 31 35 31 65 14 16 -9 29 -20 29 -24z m-365 1 c17 -19 17 -20 1 -20 -20 0
-48 25 -39 34 10 10 19 7 38 -14z m-19 -67 c-8 -8 -46 22 -46 36 0 10 8 7 25
-9 14 -13 23 -25 21 -27z m1348 31 c3 -8 2 -12 -4 -9 -6 3 -10 10 -10 16 0 14
7 11 14 -7z m1250 -121 c-11 -45 -24 -51 -24 -10 0 26 4 37 15 37 12 0 14 -7
9 -27z m-554 -113 c-5 -3 -10 -26 -13 -50 -2 -30 -4 -20 -5 30 -1 69 0 73 13
50 7 -14 9 -27 5 -30z m-496 -165 c10 -33 22 -75 28 -94 15 -48 12 -228 -4
-272 -12 -33 -13 -22 -10 99 4 137 2 154 -44 300 -8 23 -14 50 -14 60 0 25 22
-21 44 -93z m-1528 37 c6 -4 14 -19 18 -34 5 -23 3 -28 -13 -28 -14 0 -18 5
-14 19 3 11 -2 21 -12 25 -9 3 -13 10 -10 16 7 12 16 12 31 2z m48 -98 c4 -11
0 -15 -16 -12 -12 2 -23 9 -26 16 -6 18 35 15 42 -4z m29 -57 c3 -8 -3 -14
-15 -14 -16 -2 -17 1 -8 13 15 17 17 17 23 1z m47 -82 c0 -8 -7 -15 -16 -15
-14 0 -14 3 -4 15 10 12 9 15 -8 15 -11 0 -22 7 -26 15 -5 14 -2 13 24 0 17
-9 30 -22 30 -30z m44 -70 c14 -14 12 -45 -3 -45 -9 0 -30 48 -23 55 8 7 9 7
26 -10z m41 -64 c-3 -6 -11 -11 -17 -11 -6 0 -6 6 2 15 14 17 26 13 15 -4z
m61 -77 c-9 -10 -14 -9 -26 2 -13 13 -13 16 -1 23 19 12 42 -9 27 -25z m61
-60 c-9 -9 -28 6 -21 18 4 6 10 6 17 -1 6 -6 8 -13 4 -17z m59 -53 c-4 -6 -11
-11 -15 -11 -11 0 -21 37 -13 45 9 9 35 -22 28 -34z m44 -26 c-7 -9 -15 -13
-17 -11 -7 7 7 26 19 26 6 0 6 -6 -2 -15z m635 -69 c-9 -20 -25 -46 -36 -57
-20 -20 -21 -20 -34 -2 -19 24 -18 31 5 45 11 7 20 18 20 25 0 6 4 23 10 38
10 26 10 26 30 7 19 -18 19 -21 5 -56z m-588 17 c-3 -10 -5 -4 -5 12 0 17 2
24 5 18 2 -7 2 -21 0 -30z m100 -35 c32 -15 54 -39 46 -51 -3 -5 -8 -5 -12 0
-3 4 -23 17 -43 28 -57 29 -49 48 9 23z m79 -48 c0 -11 -4 -20 -8 -20 -4 0 -8
9 -8 20 0 11 4 20 8 20 4 0 8 -9 8 -20z m36 -14 c4 -17 1 -23 -9 -19 -14 6
-18 43 -4 43 5 0 11 -11 13 -24z m285 -2 c10 -22 10 -25 -3 -20 -7 3 -14 1
-14 -4 0 -15 -19 -12 -44 7 l-23 18 21 11 c33 19 50 16 63 -12z m-223 -3 c4
-5 3 -16 0 -25 -5 -13 -9 -14 -20 -5 -8 6 -14 18 -14 25 0 16 26 19 34 5z m83
-43 c-3 -8 -6 -5 -6 6 -1 11 2 17 5 13 3 -3 4 -12 1 -19z"/>
<path d="M1758 3513 c6 -2 18 -2 25 0 6 3 1 5 -13 5 -14 0 -19 -2 -12 -5z"/>
<path d="M2530 2330 c0 -5 5 -10 10 -10 6 0 10 5 10 10 0 6 -4 10 -10 10 -5 0
-10 -4 -10 -10z"/>
<path d="M3721 2194 c0 -11 3 -14 6 -6 3 7 2 16 -1 19 -3 4 -6 -2 -5 -13z"/>
<path d="M3716 2154 c-8 -20 1 -34 20 -34 8 0 14 -7 14 -15 0 -21 30 -19 31 3
2 29 -2 47 -14 54 -20 13 -45 9 -51 -8z"/>
<path d="M2720 1810 c0 -11 5 -20 10 -20 6 0 10 9 10 20 0 11 -4 20 -10 20 -5
0 -10 -9 -10 -20z"/>
<path d="M2780 1590 c0 -5 5 -10 10 -10 6 0 10 5 10 10 0 6 -4 10 -10 10 -5 0
-10 -4 -10 -10z"/>
<path d="M751 1374 c0 -11 3 -14 6 -6 3 7 2 16 -1 19 -3 4 -6 -2 -5 -13z"/>
<path d="M954 1345 c11 -8 26 -15 33 -15 7 0 13 -4 13 -10 0 -5 6 -10 13 -10
29 0 180 -142 239 -225 20 -27 45 -72 57 -100 12 -27 26 -58 31 -67 6 -10 10
-24 10 -33 0 -8 8 -30 17 -49 13 -28 19 -33 30 -25 20 17 16 67 -5 74 -18 5
-36 47 -46 110 -4 29 -43 118 -69 159 -45 73 -171 161 -270 190 -67 20 -78 20
-53 1z"/>
<path d="M1430 720 c0 -5 5 -10 10 -10 6 0 10 5 10 10 0 6 -4 10 -10 10 -5 0
-10 -4 -10 -10z"/>
<path d="M1393 653 c9 -2 23 -2 30 0 6 3 -1 5 -18 5 -16 0 -22 -2 -12 -5z"/>
<path d="M1024 3435 c-7 -18 3 -35 21 -35 18 0 26 25 12 39 -15 15 -27 14 -33
-4z"/>
<path d="M3545 2960 c3 -5 8 -10 11 -10 2 0 4 5 4 10 0 6 -5 10 -11 10 -5 0
-7 -4 -4 -10z"/>
<path d="M3920 2484 c0 -8 5 -12 10 -9 6 4 8 11 5 16 -9 14 -15 11 -15 -7z"/>
</g>
</svg>
